<svg width="21" height="12" viewBox="0 0 21 12" fill="none" xmlns="http://www.w3.org/2000/svg">
<path d="M17.9947 0.856241L17.9947 0.856272L10.2846 8.56771L2.57497 0.856688C2.57489 0.856617 2.57482 0.856546 2.57475 0.856475C2.46202 0.74351 2.32812 0.65388 2.18071 0.592711C2.0332 0.531504 1.87507 0.5 1.71538 0.5C1.55569 0.5 1.39756 0.531504 1.25005 0.592711C1.10275 0.653836 0.968932 0.743384 0.856246 0.856236C0.743389 0.968924 0.653839 1.10274 0.592712 1.25005C0.531506 1.39756 0.5 1.55568 0.5 1.71538C0.5 1.87508 0.531506 2.0332 0.592712 2.18071C0.653878 2.32811 0.743505 2.46201 0.856465 2.57474C0.856539 2.57482 0.856614 2.57489 0.856689 2.57497L9.42504 11.1433C9.53782 11.2564 9.6718 11.3461 9.81929 11.4073C9.9668 11.4685 10.1249 11.5 10.2846 11.5C10.4443 11.5 10.6024 11.4685 10.7499 11.4073C10.8974 11.3461 11.0314 11.2564 11.1442 11.1433L19.713 2.57452C19.8258 2.4617 19.9153 2.32775 19.9764 2.18034C20.0374 2.03293 20.0689 1.87493 20.0689 1.71538C20.0689 1.55583 20.0374 1.39783 19.9764 1.25042C19.9153 1.103 19.8258 0.969064 19.713 0.856241C19.6002 0.743418 19.4662 0.653921 19.3188 0.592861C19.1714 0.531801 19.0134 0.500374 18.8539 0.500374C18.6943 0.500374 18.5363 0.531801 18.3889 0.592861C18.2415 0.653921 18.1075 0.743418 17.9947 0.856241Z" fill="white" stroke="white"/>
</svg>
