<svg width="35" height="35" viewBox="0 0 35 35" fill="none" xmlns="http://www.w3.org/2000/svg">
<g clip-path="url(#clip0_14_125)">
<path d="M25.105 10.5739C25.4959 10.2017 26.0161 9.99598 26.5558 10.0001C27.0955 10.0041 27.6126 10.2177 27.9978 10.5958C28.383 10.9738 28.6063 11.4867 28.6206 12.0262C28.6349 12.5658 28.439 13.0898 28.0742 13.4876L17.002 27.3348C16.8116 27.5399 16.5819 27.7045 16.3264 27.8187C16.071 27.9329 15.7951 27.9945 15.5153 27.9996C15.2356 28.0048 14.9576 27.9535 14.6981 27.8488C14.4386 27.7441 14.2029 27.5882 14.005 27.3903L6.66241 20.0477C6.45793 19.8572 6.29393 19.6274 6.18017 19.3721C6.06642 19.1168 6.00525 18.8412 6.00032 18.5617C5.99539 18.2823 6.0468 18.0047 6.15148 17.7456C6.25615 17.4864 6.41195 17.251 6.60958 17.0534C6.80721 16.8557 7.04263 16.6999 7.30178 16.5953C7.56093 16.4906 7.83851 16.4392 8.11796 16.4441C8.39741 16.449 8.673 16.5102 8.9283 16.624C9.1836 16.7377 9.41337 16.9017 9.6039 17.1062L15.4147 22.9143L25.0523 10.6349C25.0696 10.6136 25.0882 10.5932 25.1078 10.5739H25.105Z" fill="white"/>
<circle cx="17.5" cy="17.5" r="16" stroke="white" stroke-width="3"/>
</g>
<defs>
<clipPath id="clip0_14_125">
<rect width="35" height="35" fill="white"/>
</clipPath>
</defs>
</svg>
