<svg width="26" height="29" viewBox="0 0 26 29" fill="none" xmlns="http://www.w3.org/2000/svg">
<path d="M8.31781 10.6333C8.5747 10.6333 8.82107 10.7351 9.00273 10.9164C9.18438 11.0977 9.28643 11.3436 9.28643 11.6V23.2C9.28643 23.4563 9.18438 23.7022 9.00273 23.8835C8.82107 24.0648 8.5747 24.1666 8.31781 24.1666C8.06091 24.1666 7.81454 24.0648 7.63289 23.8835C7.45123 23.7022 7.34918 23.4563 7.34918 23.2V11.6C7.34918 11.3436 7.45123 11.0977 7.63289 10.9164C7.81454 10.7351 8.06091 10.6333 8.31781 10.6333ZM13.1609 10.6333C13.4178 10.6333 13.6642 10.7351 13.8458 10.9164C14.0275 11.0977 14.1295 11.3436 14.1295 11.6V23.2C14.1295 23.4563 14.0275 23.7022 13.8458 23.8835C13.6642 24.0648 13.4178 24.1666 13.1609 24.1666C12.904 24.1666 12.6577 24.0648 12.476 23.8835C12.2944 23.7022 12.1923 23.4563 12.1923 23.2V11.6C12.1923 11.3436 12.2944 11.0977 12.476 10.9164C12.6577 10.7351 12.904 10.6333 13.1609 10.6333ZM18.9727 11.6C18.9727 11.3436 18.8706 11.0977 18.689 10.9164C18.5073 10.7351 18.2609 10.6333 18.004 10.6333C17.7471 10.6333 17.5008 10.7351 17.3191 10.9164C17.1375 11.0977 17.0354 11.3436 17.0354 11.6V23.2C17.0354 23.4563 17.1375 23.7022 17.3191 23.8835C17.5008 24.0648 17.7471 24.1666 18.004 24.1666C18.2609 24.1666 18.5073 24.0648 18.689 23.8835C18.8706 23.7022 18.9727 23.4563 18.9727 23.2V11.6Z" fill="white"/>
<path fill-rule="evenodd" clip-rule="evenodd" d="M25.7531 5.8C25.7531 6.31275 25.549 6.8045 25.1856 7.16707C24.8223 7.52964 24.3296 7.73333 23.8158 7.73333H22.8472V25.1333C22.8472 26.1588 22.439 27.1423 21.7124 27.8675C20.9858 28.5926 20.0003 29 18.9727 29H7.34921C6.32163 29 5.33614 28.5926 4.60953 27.8675C3.88292 27.1423 3.47472 26.1588 3.47472 25.1333V7.73333H2.50609C1.9923 7.73333 1.49956 7.52964 1.13625 7.16707C0.77295 6.8045 0.568848 6.31275 0.568848 5.8V3.86667C0.568848 3.35391 0.77295 2.86216 1.13625 2.49959C1.49956 2.13702 1.9923 1.93333 2.50609 1.93333H9.28646C9.28646 1.42058 9.49056 0.928831 9.85387 0.56626C10.2172 0.20369 10.7099 0 11.2237 0L15.0982 0C15.612 0 16.1047 0.20369 16.468 0.56626C16.8313 0.928831 17.0354 1.42058 17.0354 1.93333H23.8158C24.3296 1.93333 24.8223 2.13702 25.1856 2.49959C25.549 2.86216 25.7531 3.35391 25.7531 3.86667V5.8ZM5.64056 7.73333L5.41196 7.8474V25.1333C5.41196 25.6461 5.61607 26.1378 5.97937 26.5004C6.34268 26.863 6.83542 27.0667 7.34921 27.0667H18.9727C19.4865 27.0667 19.9792 26.863 20.3425 26.5004C20.7058 26.1378 20.9099 25.6461 20.9099 25.1333V7.8474L20.6813 7.73333H5.64056ZM2.50609 5.8V3.86667H23.8158V5.8H2.50609Z" fill="white"/>
</svg>
